<svg xmlns="http://www.w3.org/2000/svg" viewBox="0 0 145 80" height="80px" width="145px">
	<g id="container-reviewTxns-complete" transform="translate(0,0)">
		<defs>
			<style>
				.a,.b{fill:none;stroke:#babec5;stroke-linecap:round;stroke-linejoin:round;}.a{stroke-width:1.91px;}.b{stroke-width:2.12px;}
			</style>
		</defs>
		<title>setupWidget_Illustrations</title>
		<line class="b" x1="51.52" y1="13.58" x2="49.4" y2="13.58"/>
		<line class="b" x1="64.21" y1="13.58" x2="55.75" y2="13.58"/>
		<line class="b" x1="51.52" y1="23.1" x2="49.4" y2="23.1"/>
		<line class="b" x1="64.21" y1="23.1" x2="55.75" y2="23.1"/>
		<line class="b" x1="83.25" y1="31.56" x2="76.91" y2="31.56"/>
		<line class="b" x1="83.25" y1="41.09" x2="76.91" y2="41.09"/>
		<path class="b" d="M89.6,46V22a2.12,2.12,0,0,0-2.12-2.12H73.73A2.12,2.12,0,0,0,71.62,22V39c0,1.16-.54,1.33-1.2.37l-3.42-5a1.22,1.22,0,0,0-2.24.1l-2.69,4.77a1.09,1.09,0,0,1-2.08,0l-2.72-4.79a1.15,1.15,0,0,0-2.15,0l-.44,1.37"/>
		<path class="b" d="M63.71,52.45c.57-1,1.5-1,2.07,0l2.69,4.77a1.15,1.15,0,0,0,2.16,0l3-4.87"/>
		<path class="b" d="M60,44.26V57c0,1.16.47,1.29,1,.27l2.69-4.77"/>
		<path class="b" d="M42,18.87V5.12A2.12,2.12,0,0,1,44.12,3H69.5a2.12,2.12,0,0,1,2.12,2.12V15.7"/>
		<path class="b" d="M2,43A25,25,0,1,0,27,18,25,25,0,0,0,2,43Zm13.33,0A11.67,11.67,0,1,1,27,54.66,11.67,11.67,0,0,1,15.33,43Z"/>
		<path class="b" d="M19.1,19.3l4.21,12.64c-4.63,1.54-8,5.06-8,11.06H2C2,31,9.17,22.61,19.1,19.3Z"/>
		<path class="b" d="M27,68C13.19,68,2,56,2,43H15.33A11.32,11.32,0,0,0,27,54.66a11.61,11.61,0,0,0,7.2-2.5l8.23,10.48A24.87,24.87,0,0,1,27,68Z"/>
	</g>
</svg>