<svg width="145px" height="80px" viewBox="0 0 145 80" version="1.1" xmlns="http://www.w3.org/2000/svg" xmlns:xlink="http://www.w3.org/1999/xlink">
    <!-- Generator: Sketch 42 (36781) - http://www.bohemiancoding.com/sketch -->
    <title>setupWidget_Illustrations_customize_complete</title>
    <desc>SVG for complete state of SFC Access Point in InvoiceFTU Setup Widget</desc>
    <defs></defs>
    <g id="setupWidget_Illustrations_customize_complete" stroke="none" stroke-width="1" fill="none" fill-rule="evenodd" transform="translate(2.000000, 0.000000)">
        <g>
            <rect id="backgroundrect" x="0" y="0" width="145" height="80"></rect>
            <g id="container-customize-complete" transform="translate(3.4,1)">
                <circle id="svg_1" fill="#BABEC5" fill-rule="nonzero" cx="18.3999996" cy="19" r="18"></circle>
                <path d="M6,13.16828 L6,21.75056 L10.9883,21.75056 L10.9883,19.92352 L8.23572,19.92352 L8.23572,13.16828 L6,13.16828 Z M13.62068,17.45942 C13.62068,18.0363829 13.6286933,18.5151748 13.64472,18.89581 C13.6607467,19.2764452 13.6948031,19.5789455 13.74689,19.80332 C13.7989769,20.0276945 13.8751028,20.1839529 13.97527,20.2721 C14.0754372,20.3602471 14.2096592,20.40432 14.37794,20.40432 C14.5462208,20.40432 14.6804428,20.3602471 14.78061,20.2721 C14.8807772,20.1839529 14.9569031,20.0276945 15.00899,19.80332 C15.0610769,19.5789455 15.0951333,19.2764452 15.11116,18.89581 C15.1271867,18.5151748 15.1352,18.0363829 15.1352,17.45942 C15.1352,16.8824571 15.1271867,16.4036652 15.11116,16.02303 C15.0951333,15.6423948 15.0610769,15.3398945 15.00899,15.11552 C14.9569031,14.8911455 14.8807772,14.7348871 14.78061,14.64674 C14.6804428,14.5585929 14.5462208,14.51452 14.37794,14.51452 C14.2096592,14.51452 14.0754372,14.5585929 13.97527,14.64674 C13.8751028,14.7348871 13.7989769,14.8911455 13.74689,15.11552 C13.6948031,15.3398945 13.6607467,15.6423948 13.64472,16.02303 C13.6286933,16.4036652 13.62068,16.8824571 13.62068,17.45942 Z M11.31284,17.45942 C11.31284,16.6580827 11.3649261,15.9749528 11.4691,15.41001 C11.5732739,14.8450672 11.7455588,14.3843051 11.98596,14.02771 C12.2263612,13.6711149 12.5428847,13.4106842 12.93554,13.24641 C13.3281953,13.0821358 13.8089905,13 14.37794,13 C14.9468895,13 15.4276847,13.0821358 15.82034,13.24641 C16.2129953,13.4106842 16.5295188,13.6711149 16.76992,14.02771 C17.0103212,14.3843051 17.1826061,14.8450672 17.28678,15.41001 C17.3909539,15.9749528 17.44304,16.6580827 17.44304,17.45942 C17.44304,18.2607573 17.3909539,18.9438872 17.28678,19.50883 C17.1826061,20.0737728 17.0103212,20.5345349 16.76992,20.89113 C16.5295188,21.2477251 16.2129953,21.5021459 15.82034,21.6544 C15.4276847,21.8066541 14.9468895,21.88278 14.37794,21.88278 C13.8089905,21.88278 13.3281953,21.8066541 12.93554,21.6544 C12.5428847,21.5021459 12.2263612,21.2477251 11.98596,20.89113 C11.7455588,20.5345349 11.5732739,20.0737728 11.4691,19.50883 C11.3649261,18.9438872 11.31284,18.2607573 11.31284,17.45942 Z M21.13318,17.0868 L21.13318,18.60132 L21.9265,18.60132 C21.9265,18.9699352 21.9084702,19.2724355 21.87241,19.50883 C21.8363498,19.7452245 21.786267,19.9295293 21.72216,20.06175 C21.658053,20.1939707 21.5799238,20.2841198 21.48777,20.3322 C21.3956162,20.3802802 21.2894406,20.40432 21.16924,20.40432 C21.0009592,20.40432 20.8667372,20.3602471 20.76657,20.2721 C20.6664028,20.1839529 20.5902769,20.0276945 20.53819,19.80332 C20.4861031,19.5789455 20.4520467,19.2764452 20.43602,18.89581 C20.4199933,18.5151748 20.41198,18.0363829 20.41198,17.45942 C20.41198,16.8824571 20.4199933,16.4036652 20.43602,16.02303 C20.4520467,15.6423948 20.4861031,15.3398945 20.53819,15.11552 C20.5902769,14.8911455 20.6704095,14.7348871 20.77859,14.64674 C20.8867705,14.5585929 21.0330124,14.51452 21.21732,14.51452 C21.4817613,14.51452 21.6540463,14.6387254 21.73418,14.88714 C21.8143137,15.0954877 21.85438,15.4280377 21.85438,15.8848 L24.01798,15.8848 C24.01798,15.3639307 23.9498673,14.9211985 23.81364,14.55659 C23.6774127,14.1919815 23.4891012,13.8934878 23.2487,13.6611 C23.0082988,13.4287122 22.721825,13.2604339 22.38927,13.15626 C22.056715,13.0520861 21.6941153,13 21.30146,13 C20.6443634,13 20.1074754,13.0981624 19.69078,13.29449 C19.2740846,13.4908176 18.9475445,13.7772915 18.71115,14.15392 C18.4747555,14.5305485 18.3144904,14.9953172 18.23035,15.54824 C18.1462096,16.1011628 18.10414,16.7382164 18.10414,17.45942 C18.10414,18.1726102 18.1261764,18.8056572 18.17025,19.35858 C18.2143236,19.9115028 18.3204992,20.3762715 18.48878,20.7529 C18.6570608,21.1295285 18.9054717,21.4119957 19.23402,21.60031 C19.5625683,21.7886243 20.0113105,21.88278 20.58026,21.88278 C20.772581,21.88278 20.9628957,21.8707601 21.15121,21.84672 C21.3395243,21.8226799 21.5158158,21.7806103 21.68009,21.72051 C21.8443642,21.6604097 21.9926093,21.5702606 22.12483,21.45006 C22.2570507,21.3298594 22.3592196,21.1776076 22.43134,20.9933 L22.45538,20.9933 L22.50346,21.75056 L24.01798,21.75056 L24.01798,17.0868 L21.13318,17.0868 Z M26.98692,17.45942 C26.98692,18.0363829 26.9949333,18.5151748 27.01096,18.89581 C27.0269867,19.2764452 27.0610431,19.5789455 27.11313,19.80332 C27.1652169,20.0276945 27.2413428,20.1839529 27.34151,20.2721 C27.4416772,20.3602471 27.5758992,20.40432 27.74418,20.40432 C27.9124608,20.40432 28.0466828,20.3602471 28.14685,20.2721 C28.2470172,20.1839529 28.3231431,20.0276945 28.37523,19.80332 C28.4273169,19.5789455 28.4613733,19.2764452 28.4774,18.89581 C28.4934267,18.5151748 28.50144,18.0363829 28.50144,17.45942 C28.50144,16.8824571 28.4934267,16.4036652 28.4774,16.02303 C28.4613733,15.6423948 28.4273169,15.3398945 28.37523,15.11552 C28.3231431,14.8911455 28.2470172,14.7348871 28.14685,14.64674 C28.0466828,14.5585929 27.9124608,14.51452 27.74418,14.51452 C27.5758992,14.51452 27.4416772,14.5585929 27.34151,14.64674 C27.2413428,14.7348871 27.1652169,14.8911455 27.11313,15.11552 C27.0610431,15.3398945 27.0269867,15.6423948 27.01096,16.02303 C26.9949333,16.4036652 26.98692,16.8824571 26.98692,17.45942 Z M24.67908,17.45942 C24.67908,16.6580827 24.7311661,15.9749528 24.83534,15.41001 C24.9395139,14.8450672 25.1117988,14.3843051 25.3522,14.02771 C25.5926012,13.6711149 25.9091247,13.4106842 26.30178,13.24641 C26.6944353,13.0821358 27.1752305,13 27.74418,13 C28.3131295,13 28.7939247,13.0821358 29.18658,13.24641 C29.5792353,13.4106842 29.8957588,13.6711149 30.13616,14.02771 C30.3765612,14.3843051 30.5488461,14.8450672 30.65302,15.41001 C30.7571939,15.9749528 30.80928,16.6580827 30.80928,17.45942 C30.80928,18.2607573 30.7571939,18.9438872 30.65302,19.50883 C30.5488461,20.0737728 30.3765612,20.5345349 30.13616,20.89113 C29.8957588,21.2477251 29.5792353,21.5021459 29.18658,21.6544 C28.7939247,21.8066541 28.3131295,21.88278 27.74418,21.88278 C27.1752305,21.88278 26.6944353,21.8066541 26.30178,21.6544 C25.9091247,21.5021459 25.5926012,21.2477251 25.3522,20.89113 C25.1117988,20.5345349 24.9395139,20.0737728 24.83534,19.50883 C24.7311661,18.9438872 24.67908,18.2607573 24.67908,17.45942 Z" id="logo-str" fill="#FFFFFF" fill-rule="nonzero"></path>
                <path d="M83.4000001,45.25 L83.4000001,19 C83.3321207,17.7282903 82.8511067,16.5134665 82.0300001,15.54 L69.7700028,2.46000004 C69.0200028,1.66000009 68.4000001,1.9000001 68.4000001,3 L68.4000001,14 C68.4000001,15.1045695 69.2954306,16 70.4000001,16 L76.4000001,16" id="svg_3" stroke="#BABEC5" stroke-width="2" stroke-linecap="round" stroke-linejoin="round"></path>
                <path d="M29.4000001,37 L29.4000001,65 C29.4000001,66.1045695 30.2954306,67 31.4000001,67 L65.4000001,67" id="svg_4" stroke="#BABEC5" stroke-width="2" stroke-linecap="round" stroke-linejoin="round"></path>
                <circle id="svg_5" stroke="#BABEC5" stroke-width="2" stroke-dasharray="2" cx="43.75" cy="14.25" r="6"></circle>
                <path d="M67.4000001,54 L63.4000001,54 C62.2954306,54 61.4000001,53.1045695 61.4000001,52 L61.4000001,28 C61.4000001,26.8954305 62.2954306,26 63.4000001,26 L71.4000001,26 C72.5045696,26 73.4000001,26.8954305 73.4000001,28 L73.4000001,45 C73.4000001,46.1045695 72.5045696,47 71.4000001,47 L41.4000001,47 C40.2954306,47 39.4000001,46.1045695 39.4000001,45 L39.4000001,35 C39.4000001,33.8954305 40.2954306,33 41.4000001,33 L73.4000001,33" id="svg_6" stroke="#BABEC5" stroke-width="2" stroke-linecap="round" stroke-linejoin="round"></path>
                <path d="M57.4000015,26 L41.4000015,26" id="svg_7" stroke="#BABEC5" stroke-width="2" stroke-linecap="round" stroke-linejoin="round"></path>
                <path d="M39.4000015,40 L73.4000015,40" id="svg_8" stroke="#BABEC5" stroke-width="2" stroke-linecap="round" stroke-linejoin="round"></path>
                <path d="M64.4000015,1 L32.4000015,1" id="svg_9" stroke="#BABEC5" stroke-width="2" stroke-linecap="round" stroke-linejoin="round"></path>
            </g>
        </g>
    </g>
</svg>