<svg xmlns="http://www.w3.org/2000/svg" xmlns:xlink="http://www.w3.org/1999/xlink" viewBox="0 0 145 80" height="80px" width="145px">
	<g id="container-reviewTxns-focused" transform="translate(0,0)">
		<defs>
			<style>
				.a{fill:#53b700;}.b{fill:#7fd000;}.c{fill:#2ca01c;}.d,.e{fill:none;stroke:#babec5;stroke-linecap:round;stroke-linejoin:round;}.d{stroke-width:1.91px;}.e{stroke-width:2.12px;}
			</style>
			<symbol id="a" viewBox="0 0 50 50"><path class="a" d="M25,0A25,25,0,1,0,50,25,25,25,0,0,0,25,0Zm0,36.66A11.67,11.67,0,1,1,36.67,25,11.67,11.67,0,0,1,25,36.66Z"/><path class="b" d="M32.9,1.3,28.69,13.95c4.63,1.54,8,5.06,8,11.06H50C50,13,42.83,4.61,32.9,1.3Z"/><path class="c" d="M25,50c13.81,0,25-12,25-25H36.67A11.32,11.32,0,0,1,25,36.67a11.61,11.61,0,0,1-7.2-2.5L9.57,44.64A24.87,24.87,0,0,0,25,50Z"/>
			</symbol>
		</defs>
		<title>setupWidget_Illustrations</title>
		<line class="e" x1="51.52" y1="13.58" x2="49.4" y2="13.58"/>
		<line class="e" x1="64.21" y1="13.58" x2="55.75" y2="13.58"/>
		<line class="e" x1="51.52" y1="23.1" x2="49.4" y2="23.1"/>
		<line class="e" x1="64.21" y1="23.1" x2="55.75" y2="23.1"/>
		<line class="e" x1="83.25" y1="31.56" x2="76.91" y2="31.56"/>
		<line class="e" x1="83.25" y1="41.09" x2="76.91" y2="41.09"/>
		<path class="e" d="M89.6,46V22a2.12,2.12,0,0,0-2.12-2.12H73.73A2.12,2.12,0,0,0,71.62,22V39c0,1.16-.54,1.33-1.2.37l-3.42-5a1.22,1.22,0,0,0-2.24.1l-2.69,4.77a1.09,1.09,0,0,1-2.08,0l-2.72-4.79a1.15,1.15,0,0,0-2.15,0l-.44,1.37"/>
		<path class="e" d="M63.71,52.45c.57-1,1.5-1,2.07,0l2.69,4.77a1.15,1.15,0,0,0,2.16,0l3-4.87"/>
		<path class="e" d="M60,44.26V57c0,1.16.47,1.29,1,.27l2.69-4.77"/>
		<path class="e" d="M42,18.87V5.12A2.12,2.12,0,0,1,44.12,3H69.5a2.12,2.12,0,0,1,2.12,2.12V15.7"/>
		<use width="50" height="50" transform="matrix(-1, 0, 0, 1, 52, 18)" xlink:href="#a"/>
	</g>
</svg>