<?xml version="1.0" encoding="UTF-8"?> <svg xmlns="http://www.w3.org/2000/svg" xmlns:xlink="http://www.w3.org/1999/xlink" id="Layer_1" data-name="Layer 1" width="68" height="69" viewBox="0 0 68 69"> <defs> <symbol id="New_Symbol_309" data-name="New Symbol 309" viewBox="0 0 15 22"> <g id="New_Symbol_276-2" data-name="New Symbol 276"> <path d="M9.49,9.43l-1.2.95a1.34,1.34,0,0,1-1.57,0l-1.2-.95A2.85,2.85,0,0,1,4,6.94V2.87A2.94,2.94,0,0,1,7,0H8a2.94,2.94,0,0,1,3,2.87V6.94A2.85,2.85,0,0,1,9.49,9.43Z" fill="#53b700"></path> <path d="M8.71,12.58a1.41,1.41,0,0,1-2.39,0l-0.64-.88A2.3,2.3,0,0,0,2.76,11l-1,.58A2.91,2.91,0,0,0,.42,14.56L1.58,20A2.59,2.59,0,0,0,4,22h7a2.59,2.59,0,0,0,2.42-2l1.17-5.48a3,3,0,0,0-1.3-3L12.38,11a2.28,2.28,0,0,0-2.92.56Z" fill="#53b700"></path> </g> </symbol> <symbol id="New_Symbol_141" data-name="New Symbol 141" viewBox="0 0 68 69"> <g id="New_Symbol_39" data-name="New Symbol 39"> <path d="M61,27V23a5.57,5.57,0,0,0-1.41-3.41L48.41,8.41C47.64,7.64,47,7.9,47,9V19a2,2,0,0,0,2,2h6" fill="none" stroke="#babec5" stroke-linecap="round" stroke-linejoin="round" stroke-width="2"></path> <path d="M43,7H15a2,2,0,0,0-2,2V34" fill="none" stroke="#babec5" stroke-linecap="round" stroke-linejoin="round" stroke-width="2"></path> <path d="M40,1H9A2,2,0,0,0,7,3V34" fill="none" stroke="#babec5" stroke-linecap="round" stroke-linejoin="round" stroke-width="2"></path> <path d="M7,61V41a2,2,0,0,1,2-2H45a3,3,0,0,0,2.67-1.89l1.5-4.23A3,3,0,0,1,51.83,31H65a2,2,0,0,1,2,2V66a2,2,0,0,1-2,2H3a2,2,0,0,1-2-2V46" fill="none" stroke="#babec5" stroke-linecap="round" stroke-linejoin="round" stroke-width="2"></path> </g> <g id="New_Symbol_276" data-name="New Symbol 276"> <polyline points="24.5 22.5 26.5 24 28.5 22.5" fill="none" stroke="#fff" stroke-miterlimit="10"></polyline> <use id="New_Symbol_309-3" data-name="New Symbol 309" width="15" height="22" transform="translate(18 11)" xlink:href="#New_Symbol_309"></use> </g> </symbol> </defs> <title>create_jobs_by_vendor_customer</title> <use id="New_Symbol_141-3" data-name="New Symbol 141" width="68" height="69" xlink:href="#New_Symbol_141"></use> </svg> 