<?xml version="1.0" encoding="UTF-8"?> <svg xmlns="http://www.w3.org/2000/svg" width="85" height="70"> <g fill="none" fill-rule="evenodd"> <path d="M18 32.294c9.941 0 18 8.059 18 18 0 9.94-8.059 18-18 18s-18-8.06-18-18c0-9.941 8.059-18 18-18" fill="#53B700"></path> <path d="M17.75 40.794v18M9.25 50.294h17" stroke="#FFF" stroke-width="3" stroke-linecap="round" stroke-linejoin="round"></path> <path d="M53.06 33.624l-2 1.48a1.402 1.402 0 0 1-1.61 0l-2-1.48a4 4 0 0 1-2.19-3.34v-4.42a4.4 4.4 0 0 1 4.3-4.07h1.34a4.43 4.43 0 0 1 4.35 4.07v4.41a4.001 4.001 0 0 1-2.19 3.35" fill="#53B700"></path> <path d="M42.85 46.794a1.15 1.15 0 0 1-1-.93l-1.43-6.57a2.13 2.13 0 0 1 1.07-2.32l2.73-1.61c.92-.48 1.7-.11 2.67.61l1.57 1.16c.5.449 1.131.725 1.8.79a3.158 3.158 0 0 0 1.8-.79l1.57-1.16c1-.73 1.75-1.1 2.67-.62l2.7 1.58a2.09 2.09 0 0 1 1.07 2.3l-1.43 6.63a1.15 1.15 0 0 1-1 .93H42.85z" fill="#53B700"></path> <path d="M21.25 21.794v6M79.25 52.794v16h-47M79.25 21.794v22M16.25 14.304c0-.55.67-1.16 1.18-1.35l31.64-11.81a3.305 3.305 0 0 1 1.93 0l31.42 11.81c.518.248.843.776.83 1.35v2.25c0 .55-.19 1.25-.74 1.25H17.74c-.55 0-1.49-.7-1.49-1.25v-2.25zM50.25 4.794v9M63.25 10.794v3M36.25 10.794v3M40.25 49.794h42M74.25 52.794v12M68.25 52.794v8M63.25 52.794v4" stroke="#BABEC5" stroke-width="2" stroke-linecap="round" stroke-linejoin="round"></path> </g> </svg> 