<svg xmlns="http://www.w3.org/2000/svg" xmlns:xlink="http://www.w3.org/1999/xlink" viewBox="0 0 145 80" height="80px" width="145px">
	<g id="container-connectBank-focused" transform="translate(1.4,0)">
		<defs>
			<style>
				.a{fill:#53b700;}.b,.c,.d{fill:none;stroke-linecap:round;stroke-linejoin:round;}.b{stroke:#fff;}.b,.d{stroke-width:2px;}.c,.d{stroke:#babec5;}.c{stroke-width:1.91px;}
			</style>
			<symbol id="a" viewBox="0 0 46 32">
				<path class="a" d="M38.58,32C42.91,32,46,27.94,46,23.38a8.47,8.47,0,0,0-5.87-8.19C39.85,6.79,33.29,0,25.24,0a15,15,0,0,0-14.1,10.55,9.52,9.52,0,0,0-1.23-.11C4.44,10.44,0,15.15,0,20.92S4.17,32,9.65,32Z"/><line class="b" x1="23" y1="6" x2="23" y2="22"/><line class="b" x1="29" y1="27" x2="17" y2="27"/><path class="b" d="M18,18l3.59,3.59a2,2,0,0,0,2.83,0L28,18"/>
			</symbol>
		</defs>
		<title>setupWidget_Illustrations</title>
		<line class="d" x1="65.88" y1="71.09" x2="49" y2="71.09"/>
		<path class="d" d="M43,19.34l10.34-6.89a3.43,3.43,0,0,1,3.37-.07L74.29,23.05c.94.57.81,1-.29,1H25c-1.1,0-1.27-.52-.37-1.16L53.37,2.5a3.18,3.18,0,0,1,3.31-.07L88.32,23c.92.6.78,1.09-.32,1.09H81a2,2,0,0,0-2,2v18.4"/>
		<path class="d" d="M49,55.09v-22a3,3,0,0,1,3-3h2a3,3,0,0,1,3,3v21a3,3,0,0,0,3,3h1a3,3,0,0,0,3-3v-21a3,3,0,0,1,3-3h2a3,3,0,0,1,3,3V50.6"/>
		<path class="d" d="M34,37.09v-4a3,3,0,0,1,3-3h2a3,3,0,0,1,3,3v10"/><line class="d" x1="51" y1="63.09" x2="65.47" y2="63.09"/>
		<use width="46" height="32" transform="translate(2 40.09)" xlink:href="#a"/>
	</g>
</svg>