<svg xmlns="http://www.w3.org/2000/svg" viewBox="0 0 145 80" height="80px" width="145px">
	<g id="container-send-focused" transform="translate(0,1)">
		<defs>
			<style>
				.a,.d{fill:none;stroke:#babec5;stroke-linecap:round;}.a{stroke-miterlimit:10;stroke-width:2px;}.b{fill:#53b700;}.c{fill:#babec5;}.d{stroke-linejoin:round;stroke-width:1.91px;}
			</style>
		</defs>
		<title>setupWidget_Illustrations</title>
		<line class="a" x1="31" y1="48" x2="1" y2="48"/>
		<line class="a" x1="28" y1="56" x2="1" y2="56"/>
		<line class="a" x1="25" y1="64" x2="1" y2="64"/>
		<path class="b" transform="translate(9, 0)" d="M54,16a7.82,7.82,0,0,1-7.28,6A4.71,4.71,0,0,1,42,16a7.82,7.82,0,0,1,7.28-6A4.71,4.71,0,0,1,54,16Z"/>
		<path class="c" transform="translate(9, 0)" d="M72.57,37h-33a.78.78,0,0,1-.79-1A1.3,1.3,0,0,1,40,35H73a.78.78,0,0,1,.79,1A1.3,1.3,0,0,1,72.57,37Z"/>
		<path class="c" transform="translate(9, 0)" d="M71.09,44h-33a.78.78,0,0,1-.79-1,1.3,1.3,0,0,1,1.21-1h33a.78.78,0,0,1,.79,1A1.3,1.3,0,0,1,71.09,44Z"/>
		<path class="c" transform="translate(9, 0)" d="M72.49,28h-8a3.92,3.92,0,0,0-3.64,3L57,49H38a.79.79,0,0,1-.79-1l3.61-17a1.31,1.31,0,0,1,1.21-1h16a1.3,1.3,0,0,0,1.21-1,.78.78,0,0,0-.79-1h-16a3.92,3.92,0,0,0-3.64,3L35.24,48a2.36,2.36,0,0,0,2.36,3h19l-.85,4a2.36,2.36,0,0,0,2.36,3H60a1,1,0,0,0,1-1h0a1,1,0,0,0-1-1H58.54a.79.79,0,0,1-.79-1l.85-4h9a3.92,3.92,0,0,0,3.64-3l3.61-17A2.36,2.36,0,0,0,72.49,28Zm.36,3L69.24,48A1.31,1.31,0,0,1,68,49H59l3.83-18a1.31,1.31,0,0,1,1.21-1h8A.79.79,0,0,1,72.85,31Z"/>
		<path class="c" transform="translate(9, 0)" d="M72.42,19h9a1.3,1.3,0,0,0,1.21-1,.78.78,0,0,0-.79-1h-9a.79.79,0,0,1-.79-1L74.52,4.42,84.64,17.29A3.9,3.9,0,0,1,85.19,20L79.66,46a1,1,0,0,0,.76,1.12h0a1,1,0,0,0,1.14-.72L87.19,20a5.48,5.48,0,0,0-.83-4.12L76,2.71a1.64,1.64,0,0,0-2-.63A2.44,2.44,0,0,0,72.61,4L70.06,16A2.36,2.36,0,0,0,72.42,19Z"/>
		<path class="c" transform="translate(9, 0)" d="M57.91,68.84a1,1,0,0,0-1-.84H24a.79.79,0,0,1-.79-1L36.59,4A1.31,1.31,0,0,1,37.8,3h32A1.3,1.3,0,0,0,71,2a.78.78,0,0,0-.79-1h-32a3.92,3.92,0,0,0-3.64,3L21.2,67a2.36,2.36,0,0,0,2.36,3H56.94a1,1,0,0,0,1-1.14Z"/>
	</g>
</svg>
